<?xml version="1.0" encoding="UTF-8" standalone="no"?>
<!DOCTYPE svg PUBLIC "-//W3C//DTD SVG 1.1//EN" "http://www.w3.org/Graphics/SVG/1.1/DTD/svg11.dtd">
<svg width="100%" height="100%" viewBox="0 0 30 30" version="1.1" xmlns="http://www.w3.org/2000/svg" xmlns:xlink="http://www.w3.org/1999/xlink" xml:space="preserve" xmlns:serif="http://www.serif.com/" style="fill-rule:evenodd;clip-rule:evenodd;stroke-linejoin:round;stroke-miterlimit:2;">
    <g id="download_24dp_002855_FILL0_wght400_GRAD0_opsz24.svg" transform="matrix(1.40749,0,0,1.40749,15,15)">
        <g transform="matrix(1,0,0,1,-12,-12)">
            <path d="M12,16L7,11L8.4,9.55L11,12.15L11,4L13,4L13,12.15L15.6,9.55L17,11L12,16Z" style="fill:rgb(0,40,85);fill-rule:nonzero;"/>
            <path d="M6,20C5.45,20 4.979,19.804 4.588,19.413C4.196,19.021 4,18.55 4,18L4,15L6,15L6,18L18,18L18,15L20,15L20,18C20,18.55 19.804,19.021 19.413,19.413C19.021,19.804 18.55,20 18,20L6,20Z" style="fill:rgb(0,40,85);fill-rule:nonzero;"/>
        </g>
    </g>
</svg>
