<?xml version="1.0" encoding="UTF-8" standalone="no"?>
<!DOCTYPE svg PUBLIC "-//W3C//DTD SVG 1.1//EN" "http://www.w3.org/Graphics/SVG/1.1/DTD/svg11.dtd">
<svg width="100%" height="100%" viewBox="0 0 30 30" version="1.1" xmlns="http://www.w3.org/2000/svg" xmlns:xlink="http://www.w3.org/1999/xlink" xml:space="preserve" xmlns:serif="http://www.serif.com/" style="fill-rule:evenodd;clip-rule:evenodd;stroke-linejoin:round;stroke-miterlimit:2;">
    <g id="open_in_new_24dp_002855_FILL0_wght400_GRAD0_opsz24.svg" transform="matrix(1.20374,0,0,1.20374,15,15)">
        <g transform="matrix(1,0,0,1,-12,-12)">
            <path d="M5,21C4.45,21 3.979,20.804 3.588,20.413C3.196,20.021 3,19.55 3,19L3,5C3,4.45 3.196,3.979 3.588,3.587C3.979,3.196 4.45,3 5,3L12,3L12,5L5,5L5,19L19,19L19,12L21,12L21,19C21,19.55 20.804,20.021 20.413,20.413C20.021,20.804 19.55,21 19,21L5,21ZM9.7,15.7L8.3,14.3L17.6,5L14,5L14,3L21,3L21,10L19,10L19,6.4L9.7,15.7Z" style="fill:white;fill-rule:nonzero;"/>
        </g>
    </g>
</svg>
